<svg width="343" height="435" viewBox="0 0 343 435" fill="none" xmlns="http://www.w3.org/2000/svg">
<path d="M50.3784 290.972C50.3784 290.972 59.6428 326.552 117.512 317.444L127.399 293.63L110.744 275.527L64.6496 260.329L50.4037 290.972" fill="#34484C"/>
<path d="M234.824 224.289C234.824 236.905 228.355 240.221 211.993 247.131L72.217 306.145C69.2169 306.145 66.2462 305.554 63.4746 304.405C60.7029 303.257 58.1846 301.574 56.0635 299.453C53.9423 297.331 52.2599 294.812 51.1123 292.04C49.9647 289.268 49.3743 286.298 49.375 283.297V86.9231C49.375 74.2973 56.7966 70.0954 72.217 64.0761L211.993 5.0625C214.992 5.0625 217.962 5.6534 220.732 6.80144C223.503 7.94948 226.021 9.63217 228.141 11.7534C230.261 13.8746 231.943 16.3928 233.089 19.164C234.236 21.9353 234.826 24.9053 234.824 27.9045V224.33" fill="#085B50"/>
<path d="M62.0812 303.74C62.0812 303.74 114.463 318.776 117.516 317.48C120.578 316.189 115.567 294.764 115.567 294.764L96.6277 274.347L78.9799 273.527L75.8765 277.931L62.0762 303.74" fill="#34484C"/>
<path d="M208.703 18.63L53.6489 83.7641L60.9187 125.53L84.0037 127.823L161.019 115.425L208.911 90.3302L244.171 42.0491C236.466 28.2285 225.156 19.6779 208.703 18.6199" fill="#F4F5F5"/>
<path d="M94.7293 98.2125C94.7293 94.5422 95.3672 91.6211 96.6277 89.1304C80.7517 87.6521 65.7566 83.0554 54.8368 73.2088C51.212 76.5501 49.4199 80.7013 49.4199 86.8775V283.257C49.4213 289.315 51.8281 295.125 56.1114 299.409C60.3946 303.693 66.2038 306.101 72.2619 306.104L94.8255 296.571C94.7597 295.912 94.7259 295.25 94.7242 294.587V98.2125H94.7293Z" fill="#34484C"/>
<path d="M284.164 243.643C284.164 256.259 277.7 259.575 261.322 266.485L117.517 317.464C111.46 317.463 105.651 315.056 101.369 310.772C97.086 306.489 94.6802 300.68 94.6802 294.622V98.2479C94.6802 85.617 102.102 81.4202 117.517 75.3907L261.322 24.4063C264.322 24.405 267.293 24.9949 270.065 26.1423C272.837 27.2898 275.356 28.9723 277.477 31.0936C279.599 33.215 281.281 35.7336 282.428 38.5055C283.576 41.2774 284.166 44.2483 284.164 47.2483V243.673" fill="#089083"/>
<path d="M224.634 84.3413C224.78 84.7198 224.851 85.1236 224.841 85.5295C224.832 85.9354 224.742 86.3354 224.577 86.7065C224.413 87.0777 224.177 87.4126 223.882 87.6922C223.588 87.9717 223.241 88.1904 222.862 88.3356L146.367 117.845C145.99 117.992 145.587 118.062 145.181 118.052C144.776 118.042 144.377 117.951 144.007 117.785C143.638 117.62 143.305 117.382 143.027 117.086C142.75 116.79 142.535 116.443 142.393 116.063C142.242 115.687 142.167 115.285 142.174 114.88C142.18 114.475 142.268 114.075 142.431 113.704C142.594 113.334 142.83 112.999 143.124 112.721C143.418 112.443 143.766 112.226 144.145 112.084L220.629 82.5744C222.234 81.9669 224.021 82.7567 224.629 84.3463" fill="#78111F"/>
<path d="M224.632 98.415C224.779 98.7936 224.849 99.1973 224.839 99.603C224.829 100.009 224.739 100.408 224.574 100.779C224.41 101.15 224.174 101.485 223.88 101.765C223.586 102.045 223.239 102.264 222.861 102.409L146.366 131.919C145.989 132.066 145.587 132.137 145.182 132.127C144.777 132.118 144.379 132.028 144.009 131.863C143.639 131.698 143.306 131.462 143.028 131.167C142.751 130.872 142.535 130.526 142.392 130.147C142.241 129.77 142.167 129.367 142.174 128.962C142.18 128.556 142.268 128.156 142.431 127.785C142.594 127.413 142.829 127.078 143.124 126.799C143.418 126.519 143.764 126.301 144.144 126.158L220.628 96.6482C221.006 96.501 221.41 96.4298 221.816 96.4387C222.221 96.4476 222.621 96.5364 222.993 96.7C223.364 96.8636 223.7 97.0988 223.98 97.3923C224.261 97.6857 224.481 98.0315 224.627 98.4099" fill="#78111F"/>
<path d="M198.628 122.978C199.246 124.578 198.866 126.198 197.768 126.623L145.543 146.762C144.449 147.177 143.072 146.225 142.465 144.636C141.857 143.036 142.237 141.416 143.325 141.006L195.56 120.857C196.639 120.442 198.031 121.384 198.628 122.983" fill="#78111F"/>
<path d="M28.4947 404.375H12.556L9.91867 412H1.49067L15.8813 371.924H25.2267L39.6173 412H31.132L28.4947 404.375ZM26.316 397.953L20.5253 381.212L14.7347 397.953H26.316ZM42.9324 396.004C42.9324 392.793 43.563 389.946 44.8244 387.461C46.1239 384.977 47.8821 383.066 50.099 381.728C52.3159 380.39 54.7813 379.721 57.495 379.721C59.559 379.721 61.5275 380.18 63.4004 381.097C65.2733 381.976 66.7639 383.161 67.8724 384.652V369.573H76.0137V412H67.8724V407.299C66.8786 408.866 65.4835 410.127 63.687 411.083C61.8906 412.038 59.8075 412.516 57.4377 412.516C54.7621 412.516 52.3159 411.828 50.099 410.452C47.8821 409.076 46.1239 407.146 44.8244 404.661C43.563 402.139 42.9324 399.253 42.9324 396.004ZM67.9297 396.119C67.9297 394.169 67.5475 392.507 66.783 391.131C66.0186 389.716 64.9866 388.646 63.687 387.92C62.3875 387.156 60.9924 386.773 59.5017 386.773C58.011 386.773 56.635 387.136 55.3737 387.863C54.1124 388.589 53.0804 389.659 52.2777 391.073C51.5133 392.449 51.131 394.093 51.131 396.004C51.131 397.915 51.5133 399.597 52.2777 401.049C53.0804 402.464 54.1124 403.553 55.3737 404.317C56.6733 405.082 58.0493 405.464 59.5017 405.464C60.9924 405.464 62.3875 405.101 63.687 404.375C64.9866 403.61 66.0186 402.54 66.783 401.164C67.5475 399.75 67.9297 398.068 67.9297 396.119ZM81.7891 396.004C81.7891 392.793 82.4198 389.946 83.6811 387.461C84.9807 384.977 86.7389 383.066 88.9558 381.728C91.1727 380.39 93.638 379.721 96.3518 379.721C98.4158 379.721 100.384 380.18 102.257 381.097C104.13 381.976 105.621 383.161 106.729 384.652V369.573H114.87V412H106.729V407.299C105.735 408.866 104.34 410.127 102.544 411.083C100.747 412.038 98.6642 412.516 96.2945 412.516C93.6189 412.516 91.1727 411.828 88.9558 410.452C86.7389 409.076 84.9807 407.146 83.6811 404.661C82.4198 402.139 81.7891 399.253 81.7891 396.004ZM106.786 396.119C106.786 394.169 106.404 392.507 105.64 391.131C104.875 389.716 103.843 388.646 102.544 387.92C101.244 387.156 99.8491 386.773 98.3585 386.773C96.8678 386.773 95.4918 387.136 94.2305 387.863C92.9691 388.589 91.9371 389.659 91.1345 391.073C90.37 392.449 89.9878 394.093 89.9878 396.004C89.9878 397.915 90.37 399.597 91.1345 401.049C91.9371 402.464 92.9691 403.553 94.2305 404.317C95.53 405.082 96.906 405.464 98.3585 405.464C99.8491 405.464 101.244 405.101 102.544 404.375C103.843 403.61 104.875 402.54 105.64 401.164C106.404 399.75 106.786 398.068 106.786 396.119ZM163.605 371.981V378.46H152.941V412H144.914V378.46H134.25V371.981H163.605ZM167.397 396.004C167.397 392.793 168.028 389.946 169.289 387.461C170.589 384.977 172.328 383.066 174.507 381.728C176.723 380.39 179.189 379.721 181.903 379.721C184.272 379.721 186.336 380.199 188.095 381.155C189.891 382.11 191.324 383.314 192.395 384.767V380.237H200.479V412H192.395V407.356C191.363 408.847 189.929 410.089 188.095 411.083C186.298 412.038 184.215 412.516 181.845 412.516C179.17 412.516 176.723 411.828 174.507 410.452C172.328 409.076 170.589 407.146 169.289 404.661C168.028 402.139 167.397 399.253 167.397 396.004ZM192.395 396.119C192.395 394.169 192.012 392.507 191.248 391.131C190.483 389.716 189.451 388.646 188.152 387.92C186.852 387.156 185.457 386.773 183.967 386.773C182.476 386.773 181.1 387.136 179.839 387.863C178.577 388.589 177.545 389.659 176.743 391.073C175.978 392.449 175.596 394.093 175.596 396.004C175.596 397.915 175.978 399.597 176.743 401.049C177.545 402.464 178.577 403.553 179.839 404.317C181.138 405.082 182.514 405.464 183.967 405.464C185.457 405.464 186.852 405.101 188.152 404.375C189.451 403.61 190.483 402.54 191.248 401.164C192.012 399.75 192.395 398.068 192.395 396.119ZM220.473 412.516C217.874 412.516 215.542 412.057 213.478 411.14C211.414 410.184 209.77 408.904 208.547 407.299C207.362 405.693 206.713 403.916 206.598 401.967H214.682C214.835 403.19 215.427 404.203 216.459 405.005C217.53 405.808 218.848 406.209 220.415 406.209C221.944 406.209 223.129 405.904 223.97 405.292C224.849 404.68 225.289 403.897 225.289 402.941C225.289 401.909 224.754 401.145 223.683 400.648C222.651 400.113 220.989 399.54 218.695 398.928C216.326 398.355 214.376 397.762 212.847 397.151C211.357 396.539 210.057 395.603 208.949 394.341C207.878 393.08 207.343 391.379 207.343 389.239C207.343 387.48 207.84 385.875 208.834 384.423C209.866 382.97 211.318 381.824 213.191 380.983C215.102 380.142 217.338 379.721 219.899 379.721C223.683 379.721 226.703 380.677 228.958 382.588C231.213 384.461 232.455 387.003 232.685 390.213H225.002C224.887 388.952 224.352 387.958 223.397 387.232C222.479 386.468 221.237 386.085 219.67 386.085C218.218 386.085 217.09 386.353 216.287 386.888C215.523 387.423 215.141 388.168 215.141 389.124C215.141 390.194 215.676 391.016 216.746 391.589C217.816 392.124 219.479 392.679 221.734 393.252C224.027 393.825 225.919 394.418 227.41 395.029C228.901 395.641 230.181 396.596 231.251 397.896C232.36 399.157 232.933 400.839 232.971 402.941C232.971 404.776 232.455 406.42 231.423 407.872C230.43 409.324 228.977 410.471 227.066 411.312C225.193 412.115 222.995 412.516 220.473 412.516ZM258.365 412L247.587 398.469V412H239.56V369.573H247.587V393.711L258.251 380.237H268.685L254.696 396.176L268.8 412H258.365ZM285.197 412.516C282.597 412.516 280.266 412.057 278.202 411.14C276.138 410.184 274.494 408.904 273.271 407.299C272.086 405.693 271.437 403.916 271.322 401.967H279.406C279.559 403.19 280.151 404.203 281.183 405.005C282.253 405.808 283.572 406.209 285.139 406.209C286.668 406.209 287.853 405.904 288.694 405.292C289.573 404.68 290.013 403.897 290.013 402.941C290.013 401.909 289.477 401.145 288.407 400.648C287.375 400.113 285.713 399.54 283.419 398.928C281.049 398.355 279.1 397.762 277.571 397.151C276.081 396.539 274.781 395.603 273.673 394.341C272.602 393.08 272.067 391.379 272.067 389.239C272.067 387.48 272.564 385.875 273.558 384.423C274.59 382.97 276.042 381.824 277.915 380.983C279.826 380.142 282.062 379.721 284.623 379.721C288.407 379.721 291.427 380.677 293.682 382.588C295.937 384.461 297.179 387.003 297.409 390.213H289.726C289.611 388.952 289.076 387.958 288.121 387.232C287.203 386.468 285.961 386.085 284.394 386.085C282.941 386.085 281.814 386.353 281.011 386.888C280.247 387.423 279.865 388.168 279.865 389.124C279.865 390.194 280.4 391.016 281.47 391.589C282.54 392.124 284.203 392.679 286.458 393.252C288.751 393.825 290.643 394.418 292.134 395.029C293.625 395.641 294.905 396.596 295.975 397.896C297.084 399.157 297.657 400.839 297.695 402.941C297.695 404.776 297.179 406.42 296.147 407.872C295.153 409.324 293.701 410.471 291.79 411.312C289.917 412.115 287.719 412.516 285.197 412.516ZM314.661 371.293L313.744 398.985H306.979L306.004 371.293H314.661ZM310.533 412.401C309.081 412.401 307.877 411.962 306.921 411.083C306.004 410.165 305.545 409.038 305.545 407.7C305.545 406.362 306.004 405.254 306.921 404.375C307.877 403.457 309.081 402.999 310.533 402.999C311.948 402.999 313.113 403.457 314.031 404.375C314.948 405.254 315.407 406.362 315.407 407.7C315.407 409.038 314.948 410.165 314.031 411.083C313.113 411.962 311.948 412.401 310.533 412.401ZM334.93 371.293L334.012 398.985H327.247L326.272 371.293H334.93ZM330.802 412.401C329.349 412.401 328.145 411.962 327.19 411.083C326.272 410.165 325.814 409.038 325.814 407.7C325.814 406.362 326.272 405.254 327.19 404.375C328.145 403.457 329.349 402.999 330.802 402.999C332.216 402.999 333.382 403.457 334.299 404.375C335.216 405.254 335.675 406.362 335.675 407.7C335.675 409.038 335.216 410.165 334.299 411.083C333.382 411.962 332.216 412.401 330.802 412.401Z" fill="#089083"/>
</svg>
