<svg width="47" height="47" viewBox="0 0 47 47" fill="none" xmlns="http://www.w3.org/2000/svg">
<path d="M31.716 10.4116L35.7936 14.4873L31.716 10.4116ZM34.3381 6.82106L23.3124 17.8468C22.7427 18.4157 22.3542 19.1405 22.1958 19.9298L21.1774 25.0278L26.2753 24.0074C27.0647 23.8496 27.7885 23.4626 28.3584 22.8927L39.3841 11.867C39.7154 11.5357 39.9782 11.1424 40.1576 10.7095C40.3369 10.2766 40.4292 9.81261 40.4292 9.34405C40.4292 8.87549 40.3369 8.41151 40.1576 7.97862C39.9782 7.54572 39.7154 7.15238 39.3841 6.82106C39.0528 6.48973 38.6594 6.22691 38.2265 6.0476C37.7936 5.86829 37.3297 5.776 36.8611 5.776C36.3925 5.776 35.9286 5.86829 35.4957 6.0476C35.0628 6.22691 34.6694 6.48973 34.3381 6.82106V6.82106Z" stroke="#21AF74" stroke-width="3.39744" stroke-linecap="round" stroke-linejoin="round"/>
<path d="M36.5791 28.8782V34.6538C36.5791 35.675 36.1734 36.6544 35.4513 37.3765C34.7292 38.0986 33.7498 38.5043 32.7286 38.5043H11.5513C10.5301 38.5043 9.55071 38.0986 8.82862 37.3765C8.10652 36.6544 7.70085 35.675 7.70085 34.6538V13.4765C7.70085 12.4553 8.10652 11.4759 8.82862 10.7538C9.55071 10.0317 10.5301 9.62607 11.5513 9.62607H17.3269" stroke="#21AF74" stroke-width="3.39744" stroke-linecap="round" stroke-linejoin="round"/>
</svg>
