<svg width="41" height="46" viewBox="0 0 41 46" fill="none" xmlns="http://www.w3.org/2000/svg">
<path fill-rule="evenodd" clip-rule="evenodd" d="M12.4311 1.18726C8.65626 2.77454 0.0291613 10.9462 0 17.3856C0.0508087 24.0426 8.65626 31.9968 12.431 33.5841C19.3527 37.645 23.0197 27.9659 18.7127 25.2485C15.7252 23.0749 13.2801 21.1239 13.2291 17.3855C13.2801 13.6474 15.7252 11.0383 18.7127 8.86446C24.71 3.41586 17.3119 -1.51343 12.4311 1.18726Z" fill="#2F9E76"/>
<path d="M27.2808 28.8948C27.2294 32.5886 24.7666 35.1672 21.7534 37.3152C17.0505 40.8407 21.1219 48.0837 28.0858 44.9011C31.8929 43.3326 40.601 35.1134 40.6224 28.8948C40.312 23.3104 34.0624 13.1137 24.4276 12.0314C19.4834 12.0935 18.3594 17.0652 21.7534 20.5886C24.7634 22.7476 27.2294 25.2009 27.2808 28.8948Z" fill="#1B5E46"/>
</svg>
